<?xml version="1.0" standalone="no"?>
<!DOCTYPE svg PUBLIC "-//W3C//DTD SVG 20010904//EN"
 "http://www.w3.org/TR/2001/REC-SVG-20010904/DTD/svg10.dtd">
<svg version="1.0" xmlns="http://www.w3.org/2000/svg"
 width="260.000000pt" height="260.000000pt" viewBox="0 0 260.000000 260.000000"
 preserveAspectRatio="xMidYMid meet">
<metadata>
Created by potrace 1.11, written by Peter Selinger 2001-2013
</metadata>
<g transform="translate(0.000000,260.000000) scale(0.100000,-0.100000)"
fill="#000000" stroke="none">
<path d="M1189 2496 c-2 -2 -23 -6 -47 -10 -71 -9 -203 -43 -267 -67 -33 -13
-62 -24 -65 -24 -18 -3 -120 -63 -191 -111 -332 -226 -526 -613 -514 -1024 4
-152 36 -303 94 -441 33 -79 115 -218 150 -256 12 -12 21 -25 21 -29 0 -8 150
-157 189 -188 74 -58 225 -144 305 -173 47 -17 167 -49 211 -57 17 -3 53 -10
80 -15 28 -6 109 -9 180 -7 318 8 600 130 825 355 220 221 338 501 345 821 11
462 -238 882 -648 1095 -80 41 -212 89 -280 100 -17 3 -39 8 -47 10 -45 13
-87 17 -206 21 -72 2 -132 3 -135 0z m291 -191 c245 -45 474 -181 625 -369 94
-118 173 -289 204 -440 28 -135 22 -328 -13 -460 -121 -452 -520 -761 -989
-764 -160 -1 -313 35 -455 106 -297 149 -493 410 -556 742 -20 103 -14 310 12
410 59 227 183 426 347 556 28 21 52 41 55 45 9 10 75 47 145 82 154 77 289
106 465 102 69 -2 141 -6 160 -10z"/>
<path d="M1778 1788 c-16 -5 -28 -16 -28 -24 0 -9 -4 -12 -10 -9 -5 3 -10 -1
-10 -10 0 -10 -7 -15 -17 -13 -10 2 -29 -7 -43 -19 -20 -18 -34 -22 -68 -20
-49 4 -79 -16 -106 -70 -19 -38 -29 -40 -58 -13 -12 11 -29 20 -39 20 -9 0
-19 7 -23 15 -3 8 -9 14 -13 13 -4 -1 -18 3 -30 10 -17 10 -22 9 -28 -5 -5
-15 -7 -15 -15 -3 -6 9 -10 10 -10 3 0 -19 31 -45 47 -39 8 4 11 1 8 -5 -4 -6
-1 -10 6 -8 26 3 40 -1 35 -10 -3 -5 1 -11 9 -15 8 -3 15 -12 15 -21 0 -8 3
-14 8 -14 19 3 43 -2 39 -8 -3 -5 -1 -17 3 -28 4 -12 1 -29 -7 -42 -8 -12 -12
-27 -8 -32 3 -6 0 -8 -8 -5 -11 4 -13 -1 -10 -20 3 -14 9 -23 13 -21 5 3 11 1
15 -5 4 -6 11 -8 16 -5 5 4 9 1 9 -4 0 -6 6 -10 13 -9 7 2 11 -5 9 -17 -2 -11
1 -16 5 -10 4 6 18 16 30 23 20 11 26 9 45 -13 26 -30 30 -31 46 -4 8 12 9 19
4 15 -5 -3 -7 6 -4 19 2 14 6 25 9 25 8 0 28 -25 31 -38 3 -19 10 -56 11 -63
1 -3 15 -6 33 -7 35 -1 61 14 52 30 -3 5 0 17 7 26 7 9 9 14 5 10 -5 -4 -14
-1 -20 8 -6 8 -21 16 -34 17 -12 0 -22 5 -22 10 0 4 -4 6 -9 3 -5 -3 -11 3
-14 15 -7 26 18 37 45 20 16 -10 19 -10 12 1 -4 7 2 5 13 -5 11 -9 23 -14 27
-10 4 4 9 -3 12 -15 4 -12 15 -24 26 -28 11 -3 17 -12 14 -20 -3 -8 -1 -14 3
-14 11 0 21 -25 28 -64 3 -18 1 -26 -6 -22 -6 4 -9 1 -5 -7 4 -11 -5 -14 -43
-13 -53 3 -89 -9 -97 -31 -3 -8 -2 -12 2 -10 4 3 12 -1 18 -7 9 -10 7 -19 -7
-37 -10 -13 -19 -18 -19 -11 0 7 -5 10 -10 7 -6 -4 -16 -2 -23 3 -18 15 -70
19 -74 6 -2 -7 3 -19 12 -27 24 -25 19 -61 -14 -80 -15 -9 -32 -13 -36 -9 -5
4 -5 1 -1 -5 5 -9 0 -13 -14 -13 -14 0 -19 -4 -14 -12 5 -8 2 -9 -9 -5 -10 3
-17 3 -17 -2 0 -4 -13 -8 -30 -9 -16 0 -34 -3 -40 -7 -16 -10 -12 -65 4 -65
14 0 16 -23 3 -36 -3 -3 -23 -3 -43 1 -25 4 -33 9 -24 15 9 6 7 10 -9 15 -11
3 -21 11 -21 16 0 6 -6 7 -12 3 -10 -6 -10 -5 -1 8 7 8 10 18 6 21 -3 4 -1 7
5 7 7 0 12 7 12 15 0 8 -7 15 -16 15 -8 0 -12 4 -9 10 3 5 0 8 -7 5 -7 -3 -17
-1 -23 3 -15 11 -55 92 -55 112 0 20 -23 43 -33 34 -4 -4 -4 4 -2 16 2 12 2
20 -2 16 -3 -3 -12 -1 -20 5 -7 6 -13 8 -13 3 0 -5 -4 -4 -8 2 -5 9 -11 8 -20
-2 -9 -10 -9 -14 -1 -14 8 0 7 -5 -2 -17 -12 -15 -12 -16 4 -10 11 4 16 3 12
-4 -4 -5 -1 -17 6 -25 18 -22 -4 -42 -27 -24 -9 8 -26 15 -37 17 -12 2 -27 10
-33 18 -14 18 -45 20 -62 3 -9 -9 -16 -8 -29 5 -16 16 -16 17 6 17 l22 0 -22
31 c-12 18 -31 34 -41 37 -10 2 -15 8 -12 13 2 5 -3 20 -13 35 -11 17 -18 50
-20 91 -1 36 -7 70 -12 77 -6 7 -8 16 -4 19 3 4 1 7 -7 7 -9 0 -10 3 -1 13 6
8 8 17 4 20 -3 4 -1 7 6 7 8 0 11 6 7 16 -3 8 -2 12 4 9 5 -3 8 4 7 15 -1 13
-8 20 -23 20 -24 0 -38 -32 -22 -48 6 -6 3 -15 -10 -23 -15 -11 -19 -25 -17
-69 0 -30 3 -60 7 -65 3 -6 4 -19 2 -29 -1 -11 0 -25 4 -30 4 -6 7 -24 8 -39
1 -15 9 -34 20 -41 13 -10 18 -28 20 -72 1 -33 -2 -64 -7 -69 -9 -13 11 -58
26 -57 6 0 17 -4 26 -9 10 -5 24 -2 39 8 13 9 21 12 17 6 -3 -5 0 -10 8 -10 8
0 12 4 9 9 -3 5 13 8 35 7 23 -2 41 -6 41 -10 0 -4 13 -10 30 -14 16 -4 40
-19 53 -34 13 -16 40 -34 60 -42 20 -7 37 -17 37 -22 0 -5 9 -7 20 -4 11 3 18
1 15 -3 -3 -5 1 -12 9 -17 8 -4 16 -15 18 -23 2 -8 12 -23 22 -32 10 -10 15
-18 10 -18 -5 -1 2 -7 16 -15 18 -9 29 -10 37 -3 9 7 13 7 13 0 0 -15 62 -3
83 16 10 9 16 24 14 33 -3 10 1 20 8 23 23 8 87 -2 96 -16 7 -10 9 -10 9 2 0
11 2 12 8 2 9 -14 62 -13 62 2 0 6 5 5 12 -2 8 -8 15 -9 25 -1 10 9 13 8 13
-2 0 -11 2 -11 10 1 5 8 10 12 10 8 0 -12 40 30 40 42 0 15 -42 60 -50 55 -4
-3 -13 2 -20 10 -7 8 -16 12 -21 9 -5 -3 -9 0 -9 6 0 6 -4 9 -8 6 -5 -3 -9 1
-9 9 0 8 5 11 10 8 6 -4 8 1 4 11 -4 9 -3 14 2 11 5 -3 12 -1 16 5 3 5 15 10
26 10 10 0 19 5 19 12 0 9 3 9 12 0 18 -18 55 -14 71 8 8 11 17 17 22 12 5 -4
5 -2 2 5 -4 6 0 18 9 27 8 9 13 20 10 25 -3 5 2 12 11 15 15 6 15 8 3 16 -10
7 -11 10 -2 10 6 0 12 5 12 11 0 5 -5 7 -12 3 -7 -5 -8 -3 -2 7 23 37 8 143
-23 162 -7 5 -11 12 -8 17 3 5 -4 12 -16 15 -11 4 -18 9 -15 13 10 9 -33 34
-46 26 -7 -5 -9 -2 -6 8 4 10 0 15 -10 15 -46 1 -58 13 -55 56 5 63 5 65 20
60 7 -3 13 2 13 11 0 9 5 16 10 16 6 0 10 5 10 11 0 7 10 20 22 30 11 11 18
19 14 19 -4 0 -1 6 6 14 7 8 17 11 22 8 5 -3 6 0 2 6 -3 6 -2 13 4 17 5 3 10
11 10 16 0 6 -6 7 -12 3 -9 -6 -9 -3 0 9 28 34 -6 54 -60 35z m-168 -189 c0
-6 -6 -7 -12 -3 -10 6 -10 5 0 -8 10 -12 9 -18 -3 -28 -8 -7 -15 -20 -16 -29
0 -12 -2 -12 -6 -2 -5 11 -7 11 -14 0 -7 -11 -9 -10 -9 4 0 10 -4 16 -9 13 -4
-3 -1 10 7 29 9 19 19 32 23 29 4 -2 10 0 14 6 7 12 25 4 25 -11z m56 -611
c11 -12 -21 -48 -41 -46 -27 4 -57 40 -42 50 13 8 73 5 83 -4z"/>
<path d="M1152 1708 c2 -8 -8 -13 -27 -13 -30 0 -43 -11 -29 -23 4 -4 3 -1 -1
7 -6 11 -4 13 9 8 10 -4 24 -7 32 -7 9 0 13 -4 10 -9 -3 -5 3 -11 14 -14 11
-3 18 -2 15 3 -2 4 12 2 33 -5 21 -8 38 -9 40 -4 2 5 8 7 13 3 5 -3 9 4 9 16
0 12 -4 18 -10 15 -5 -3 -10 0 -10 7 0 9 -3 9 -10 -2 -7 -11 -10 -11 -10 -2 0
7 -4 10 -10 7 -5 -3 -10 -1 -10 5 0 7 -6 10 -12 7 -7 -2 -21 0 -31 5 -12 6
-17 5 -15 -4z"/>
<path d="M1020 1679 c0 -6 -8 -8 -17 -5 -16 6 -16 5 0 -8 23 -18 51 -14 55 7
2 12 -3 17 -17 17 -12 0 -21 -5 -21 -11z"/>
<path d="M933 1653 c-26 -18 -30 -43 -8 -43 8 0 15 5 15 11 0 5 4 8 9 4 5 -3
17 2 26 11 13 14 14 19 3 25 -17 11 -19 11 -45 -8z"/>
<path d="M1452 1338 c-20 -20 -14 -38 13 -38 23 0 25 2 14 23 -6 12 -13 23
-14 24 -1 2 -7 -3 -13 -9z"/>
<path d="M1524 1312 c3 -5 0 -13 -6 -15 -9 -4 -10 -6 -1 -6 17 -1 25 16 12 25
-7 4 -9 3 -5 -4z"/>
<path d="M1467 1263 c-14 -15 -13 -18 11 -43 15 -14 35 -29 46 -33 15 -6 17
-4 12 15 -3 13 -6 26 -6 30 0 4 -9 10 -20 13 -11 4 -18 10 -15 15 10 17 -12
19 -28 3z"/>
</g>
</svg>
